<?xml version="1.0" standalone="no"?>
<!DOCTYPE svg PUBLIC "-//W3C//DTD SVG 20010904//EN"
 "http://www.w3.org/TR/2001/REC-SVG-20010904/DTD/svg10.dtd">
<svg version="1.0" xmlns="http://www.w3.org/2000/svg"
 width="1728.000000pt" height="1728.000000pt" viewBox="0 0 1728.000000 1728.000000"
 preserveAspectRatio="xMidYMid meet">
<metadata>
Created by potrace 1.14, written by Peter Selinger 2001-2017
</metadata>
<g transform="translate(0.000000,1728.000000) scale(0.100000,-0.100000)"
fill="#000000" stroke="none">
<path d="M11125 17132 c-38 -75 -72 -139 -75 -142 -3 -3 -39 -72 -80 -155 -41
-82 -77 -152 -80 -155 -3 -3 -33 -61 -68 -130 -141 -278 -227 -445 -232 -450
-3 -3 -25 -47 -50 -97 -25 -51 -48 -93 -52 -93 -5 0 -8 -8 -8 -18 0 -10 -4
-22 -9 -27 -4 -6 -59 -109 -121 -230 -63 -121 -137 -265 -165 -320 -28 -55
-57 -111 -65 -125 -7 -14 -17 -32 -21 -40 -53 -104 -202 -395 -239 -465 -26
-49 -83 -160 -126 -245 -43 -85 -82 -156 -86 -158 -5 -2 -8 -12 -8 -22 0 -10
-3 -20 -7 -22 -7 -3 -61 -106 -235 -448 -29 -58 -55 -107 -58 -110 -3 -3 -29
-52 -58 -110 -50 -101 -166 -326 -277 -537 -29 -56 -51 -104 -47 -107 3 -3 1
-6 -5 -6 -6 0 -17 -15 -24 -32 -7 -18 -25 -54 -41 -80 -15 -27 -25 -48 -22
-48 4 0 2 -6 -4 -13 -11 -12 -61 -109 -193 -367 -41 -80 -78 -148 -84 -152 -5
-4 -6 -8 -1 -8 5 0 4 -6 -2 -12 -6 -7 -47 -85 -92 -173 -182 -354 -222 -430
-231 -440 -5 -5 -9 -17 -9 -26 0 -10 -3 -19 -7 -21 -5 -2 -35 -57 -68 -123
-33 -66 -62 -122 -65 -125 -3 -3 -26 -48 -53 -100 -26 -52 -86 -169 -133 -260
-139 -268 -287 -555 -365 -710 -41 -80 -76 -147 -79 -150 -3 -3 -34 -61 -69
-130 -77 -153 -79 -156 -90 -177 -5 -10 -49 -94 -97 -188 -48 -93 -92 -173
-98 -177 -6 -4 -8 -8 -4 -8 4 0 -15 -42 -41 -92 -27 -51 -82 -158 -123 -238
-42 -80 -109 -210 -150 -290 -118 -228 -224 -433 -303 -585 -70 -134 -136
-262 -315 -610 -46 -88 -117 -227 -159 -310 -42 -82 -78 -152 -81 -155 -3 -3
-14 -24 -24 -47 -11 -24 -24 -43 -29 -43 -6 0 -8 -3 -4 -6 3 -3 -15 -45 -40
-93 -25 -47 -76 -144 -113 -216 -111 -216 -237 -458 -254 -490 -9 -16 -16 -36
-16 -42 0 -7 -4 -13 -9 -13 -5 0 -12 -12 -16 -27 -3 -15 -10 -30 -14 -33 -4
-3 -58 -104 -120 -225 -62 -121 -117 -226 -123 -232 -6 -7 -7 -13 -3 -13 4 0
3 -6 -3 -13 -12 -14 -45 -77 -183 -347 -46 -91 -88 -168 -94 -172 -5 -4 -6 -8
-2 -8 5 0 -1 -14 -13 -30 -12 -17 -23 -37 -24 -44 -1 -8 -7 -20 -13 -27 -6 -8
-14 -25 -18 -39 -4 -14 -11 -27 -14 -30 -14 -11 -121 -229 -113 -233 4 -2 27
-5 52 -6 25 -1 59 -4 75 -7 30 -4 61 -7 190 -18 39 -3 90 -8 115 -11 25 -3 65
-7 90 -9 25 -3 74 -7 110 -10 36 -4 92 -9 125 -12 33 -3 76 -7 95 -9 19 -3 64
-7 100 -10 36 -3 88 -7 115 -10 99 -10 151 -15 225 -21 41 -3 91 -8 110 -10
41 -5 111 -12 195 -19 33 -2 87 -7 120 -10 140 -14 163 -16 214 -20 29 -2 72
-6 95 -9 40 -5 142 -15 221 -21 22 -2 67 -6 100 -10 33 -3 83 -8 110 -10 28
-2 79 -7 115 -11 36 -3 81 -7 100 -9 19 -1 35 -3 35 -4 0 -1 32 -4 70 -6 39
-3 88 -7 110 -10 22 -3 67 -7 100 -10 105 -9 159 -15 210 -20 28 -3 79 -8 115
-11 178 -14 284 -25 290 -30 2 -3 -2 -14 -9 -26 -7 -12 -24 -40 -36 -62 -37
-67 -263 -474 -277 -498 -7 -13 -17 -26 -23 -30 -7 -5 -7 -8 0 -8 7 0 7 -3 0
-8 -5 -4 -26 -37 -45 -74 -19 -37 -39 -68 -43 -68 -5 0 -6 -4 -2 -9 3 -5 -2
-16 -10 -24 -8 -9 -15 -18 -15 -20 0 -5 -180 -327 -286 -514 -35 -61 -64 -114
-64 -117 0 -4 -12 -25 -27 -49 -15 -23 -40 -67 -56 -97 -16 -30 -37 -68 -47
-85 -9 -16 -29 -50 -42 -75 -14 -25 -63 -112 -109 -193 -46 -82 -97 -174 -114
-205 -16 -31 -35 -63 -42 -70 -7 -7 -13 -17 -13 -21 0 -5 -25 -52 -55 -106
-30 -53 -55 -101 -55 -106 0 -5 -3 -9 -8 -9 -4 0 -15 -17 -25 -37 -29 -61 -61
-117 -72 -125 -7 -5 -7 -8 0 -8 6 0 6 -3 -1 -8 -5 -4 -18 -23 -27 -42 -10 -19
-22 -42 -27 -50 -15 -22 -150 -263 -150 -266 0 -2 -15 -29 -34 -61 -18 -32
-45 -79 -60 -106 -14 -26 -37 -66 -50 -90 -13 -23 -38 -69 -56 -102 -18 -33
-36 -64 -40 -70 -4 -5 -22 -37 -40 -70 -18 -33 -44 -78 -56 -100 -13 -22 -33
-58 -44 -80 -12 -22 -27 -49 -33 -60 -7 -11 -46 -81 -87 -155 -41 -74 -78
-137 -82 -138 -4 -2 -8 -12 -8 -23 0 -10 -4 -19 -9 -19 -5 0 -15 -16 -22 -35
-7 -19 -17 -35 -21 -35 -4 0 -8 -6 -8 -14 0 -8 -6 -21 -13 -28 -14 -16 -77
-132 -77 -143 0 -4 11 4 25 19 13 14 26 26 28 26 2 0 35 30 74 68 86 81 185
172 188 172 1 0 32 28 68 63 36 34 85 79 109 101 39 35 174 159 268 246 20 19
81 76 135 125 54 50 111 101 125 115 15 14 67 61 115 105 48 44 99 91 114 105
15 14 71 66 125 115 54 50 113 104 131 120 17 17 76 71 130 120 54 50 108 99
119 110 12 11 75 69 141 130 66 60 125 114 131 120 6 5 52 48 104 95 51 47
109 101 130 120 21 19 75 69 120 110 46 41 107 98 136 125 29 28 90 84 135
125 123 111 119 108 220 202 52 48 108 99 124 114 17 15 75 68 130 119 55 51
112 103 126 116 15 13 70 65 124 114 54 50 110 101 125 115 15 14 71 66 125
115 54 50 113 104 130 120 18 17 79 73 136 125 57 52 113 105 125 118 12 12
24 22 27 22 2 0 27 21 54 48 41 40 140 132 299 277 128 118 282 259 359 330
27 26 91 84 250 230 19 17 77 71 131 120 135 125 141 130 239 220 48 44 102
94 120 110 137 127 238 220 284 261 30 27 83 77 118 110 34 34 63 59 63 57 0
-3 20 16 45 41 25 25 47 46 49 46 2 0 33 28 69 63 36 34 98 92 139 128 107 98
325 298 398 368 19 18 46 42 60 53 20 16 22 21 10 28 -8 6 -22 10 -30 11 -56
4 -75 7 -75 8 0 3 -56 13 -145 26 -14 2 -34 6 -45 8 -11 3 -40 8 -65 11 -50 7
-85 14 -85 16 0 1 -13 3 -30 5 -51 7 -99 14 -125 20 -14 3 -43 7 -65 10 -22 3
-53 8 -70 12 -16 4 -37 7 -45 8 -19 2 -108 16 -135 22 -11 2 -36 6 -55 9 -19
2 -46 7 -60 10 -14 2 -43 7 -65 10 -22 3 -47 7 -56 10 -9 2 -34 7 -55 9 -48 7
-95 15 -114 20 -8 2 -33 6 -55 10 -22 3 -56 8 -75 12 -19 3 -46 7 -60 9 -14 1
-25 3 -25 4 0 2 -28 7 -85 16 -25 3 -56 8 -70 11 -14 2 -36 5 -50 7 -14 2 -38
6 -55 9 -36 8 -109 20 -185 32 -14 2 -36 6 -50 9 -13 3 -42 8 -65 11 -22 3
-53 8 -70 12 -16 3 -39 7 -50 8 -21 2 -81 13 -125 21 -14 3 -38 7 -55 9 -16 2
-43 6 -60 10 -16 3 -46 8 -65 11 -19 2 -46 7 -60 10 -27 5 -57 11 -105 18 -16
2 -73 12 -125 21 -52 9 -106 18 -120 19 -14 2 -36 6 -50 9 -14 4 -43 9 -65 12
-22 3 -52 7 -67 10 -16 3 -40 7 -55 9 -16 2 -68 11 -118 20 -49 8 -103 17
-120 20 -16 3 -41 7 -55 10 -53 10 -176 29 -194 30 -27 1 -30 18 -9 43 42 48
281 337 392 473 19 24 40 48 46 54 6 6 28 33 50 61 22 27 50 61 61 75 42 48
239 288 269 325 17 21 38 45 48 54 9 8 17 19 17 24 0 5 8 16 19 25 10 10 83
96 161 192 79 96 149 182 157 190 12 14 26 31 124 151 108 131 279 337 294
353 6 6 28 34 50 61 21 28 42 52 45 55 3 3 25 30 50 60 24 30 48 57 52 58 5 2
8 8 8 13 0 6 10 20 23 32 13 12 30 31 38 43 8 12 33 43 55 70 23 27 88 105
145 174 57 69 109 131 116 138 8 8 26 30 41 50 15 21 29 39 32 42 11 11 67 78
95 114 17 22 37 46 46 55 8 9 69 81 134 161 66 80 123 147 127 148 4 2 8 8 8
13 0 5 8 17 18 27 9 10 33 37 52 61 19 24 40 48 45 55 6 6 45 54 88 106 43 52
93 113 112 135 18 22 50 60 70 85 20 25 54 65 75 90 21 25 74 90 119 145 44
55 89 109 99 120 10 11 41 47 68 80 27 33 51 62 54 65 3 3 33 40 68 82 l62 76
-14 61 c-8 34 -15 64 -15 66 -1 3 -3 10 -5 17 -2 7 -10 42 -17 78 -7 36 -14
68 -15 73 -1 4 -2 8 -4 10 -2 2 -5 16 -13 57 -3 14 -14 63 -26 110 -11 47 -22
96 -25 110 -2 14 -16 75 -31 135 -15 61 -28 121 -31 135 -4 23 -12 58 -20 85
-2 6 -6 24 -9 40 -3 17 -12 55 -20 85 -8 30 -16 66 -18 80 -2 14 -6 32 -9 40
-6 15 -45 185 -53 230 -3 14 -12 52 -20 85 -9 33 -17 69 -19 80 -1 11 -6 29
-9 40 -3 11 -8 31 -11 45 -6 29 -10 49 -26 110 -6 25 -12 54 -15 65 -10 54
-16 81 -21 97 -3 9 -7 27 -9 40 -3 13 -14 61 -26 108 -11 47 -23 94 -24 105
-2 11 -8 38 -14 60 -5 22 -12 51 -15 65 -3 14 -8 36 -11 50 -3 14 -8 36 -11
50 -3 14 -7 32 -9 40 -2 8 -4 15 -5 15 -1 0 -3 11 -6 25 -4 24 -15 73 -49 213
-8 34 -17 71 -19 82 -2 11 -12 52 -21 90 -9 39 -18 75 -19 82 -1 7 -5 15 -8
19 -4 3 -4 12 -2 18 3 7 -2 33 -11 59 -8 25 -15 49 -13 54 1 4 -4 26 -10 48
-6 22 -13 51 -16 65 -3 14 -12 52 -20 85 -28 119 -56 247 -60 268 -3 12 -5 22
-6 22 -1 0 -4 11 -7 25 -7 39 -11 55 -13 55 -1 0 -4 13 -6 29 -3 16 -12 55
-20 85 -8 31 -17 68 -19 83 -2 15 -8 44 -14 65 -6 21 -12 49 -15 63 -3 14 -11
45 -16 70 -6 25 -13 54 -15 65 -2 11 -4 20 -5 20 -1 0 -4 11 -6 25 -3 13 -16
72 -30 130 -14 58 -27 114 -28 125 -2 11 -6 27 -9 35 -3 8 -13 49 -22 90 -9
41 -17 82 -19 90 -3 8 -10 38 -16 65 -6 28 -14 58 -16 68 -2 9 -6 27 -9 38 -2
12 -18 83 -36 158 -17 75 -32 141 -33 146 -1 6 -5 19 -9 30 -3 11 -8 37 -12
59 -3 21 -7 41 -10 45 -4 7 -9 29 -20 86 -3 11 -12 49 -20 85 -9 36 -18 75
-19 87 -2 11 -7 30 -10 41 -7 21 -14 51 -21 87 -2 11 -18 81 -35 155 -17 74
-34 146 -36 160 -3 14 -8 28 -12 32 -4 4 -39 -54 -77 -130z"/>
<path d="M4641 10213 c-1 -2680 1 -4873 3 -4873 5 0 62 113 223 432 29 59 53
111 52 114 0 4 3 10 8 13 14 10 45 71 36 71 -4 0 -3 4 2 8 6 4 55 97 110 207
55 110 103 202 108 203 4 2 7 8 7 14 0 5 36 80 79 166 259 515 394 779 404
791 7 8 11 16 9 18 -3 4 119 254 128 263 3 3 57 109 120 235 63 127 119 233
125 237 5 4 7 8 3 8 -5 0 87 188 133 271 7 13 14 26 14 29 1 6 12 27 290 575
293 580 345 684 344 691 0 4 3 10 8 13 4 3 53 96 107 206 55 110 104 202 108
203 4 2 8 9 8 15 0 13 106 225 122 245 6 6 8 12 4 12 -3 0 4 17 16 38 22 39
101 193 103 202 0 3 13 29 28 58 15 28 23 52 18 52 -5 0 -11 8 -14 18 -4 9
-26 49 -51 87 -25 39 -67 105 -93 148 -26 42 -59 95 -73 116 -37 59 -114 183
-131 211 -7 14 -16 27 -19 30 -10 9 -45 64 -57 90 -7 14 -64 106 -128 205 -64
99 -120 189 -125 200 -9 18 -204 327 -230 365 -6 8 -16 25 -23 37 -7 12 -42
70 -79 129 -38 59 -68 111 -68 115 0 5 -4 9 -9 9 -5 0 -15 12 -22 28 -19 36
-72 126 -79 132 -3 3 -10 14 -17 25 -6 11 -47 76 -90 145 -43 69 -79 131 -81
138 -2 6 -8 12 -13 12 -5 0 -9 7 -9 15 0 8 -4 15 -10 15 -5 0 -10 6 -10 13 0
7 -9 23 -20 35 -11 12 -20 28 -20 37 0 8 -4 15 -8 15 -5 0 -15 12 -23 28 -7
15 -21 38 -30 52 -9 14 -32 50 -51 80 -19 30 -78 124 -131 208 -54 85 -97 155
-97 157 0 2 -21 37 -47 77 -27 41 -53 83 -60 93 -6 11 -51 83 -100 160 -48 77
-94 151 -101 165 -7 13 -16 27 -20 30 -6 5 -17 22 -46 75 -6 11 -13 22 -16 25
-12 11 -90 140 -90 149 0 5 -3 11 -8 13 -7 3 -72 103 -127 195 -11 18 -78 126
-150 240 -71 114 -133 214 -137 223 -4 8 -7 -2178 -7 -4857z"/>
</g>
</svg>
