<svg width="110" height="110" xmlns="http://www.w3.org/2000/svg" xmlns:xlink="http://www.w3.org/1999/xlink"
     xml:space="preserve" overflow="hidden"><defs><clipPath id="clip0"><rect x="866" y="2300" width="110" height="110"/></clipPath></defs>
    <g clip-path="url(#clip0)" transform="translate(-866 -2300)"><path d="M935.565 2368.9C932.148 2368.9 929.378 2371.66 929.378 2375.06 929.378 2378.47 932.148 2381.23 935.565 2381.23L949.169 2381.23C952.585 2381.23 955.355 2378.47 955.355 2375.06 955.355 2371.66 952.585 2368.9 949.169 2368.9ZM893.618 2368.9C890.201 2368.9 887.431 2371.66 887.431 2375.06 887.431 2378.47 890.201 2381.23 893.618 2381.23L907.222 2381.23C910.639 2381.23 913.409 2378.47 913.409 2375.06 913.409 2371.66 910.639 2368.9 907.222 2368.9ZM935.565 2342.4C932.148 2342.4 929.378 2345.16 929.378 2348.56 929.378 2351.96 932.148 2354.72 935.565 2354.72L949.169 2354.72C952.585 2354.72 955.355 2351.96 955.355 2348.56 955.355 2345.16 952.585 2342.4 949.169 2342.4ZM893.618 2342.4C890.201 2342.4 887.431 2345.16 887.431 2348.56 887.431 2351.96 890.201 2354.72 893.618 2354.72L907.222 2354.72C910.639 2354.72 913.409 2351.96 913.409 2348.56 913.409 2345.16 910.639 2342.4 907.222 2342.4ZM897.659 2301C901.418 2301 904.465 2304.03 904.465 2307.78L904.465 2313.79 938.406 2313.79 938.406 2307.78C938.406 2304.03 941.454 2301 945.212 2301 948.971 2301 952.018 2304.03 952.018 2307.78L952.018 2313.79 956.076 2313.79C965.975 2313.79 974 2321.78 974 2331.64L974 2390.15C974 2400.01 965.975 2408 956.076 2408L886.924 2408C877.025 2408 869 2400.01 869 2390.15L869 2331.64C869 2321.78 877.025 2313.79 886.924 2313.79L890.854 2313.79 890.854 2307.78C890.854 2304.03 893.901 2301 897.659 2301Z" fill="#BFBFBF" fill-rule="evenodd" fill-opacity="1"/></g></svg>
