<svg width="45" height="44" xmlns="http://www.w3.org/2000/svg" xmlns:xlink="http://www.w3.org/1999/xlink"
     xml:space="preserve" overflow="hidden"><defs><clipPath id="clip0"><rect x="141" y="572" width="45" height="44"/></clipPath><clipPath
        id="clip1"><rect x="142" y="572" width="44" height="44"/></clipPath><clipPath id="clip2"><rect x="142" y="572" width="44" height="44"/></clipPath><clipPath
        id="clip3"><rect x="142" y="572" width="44" height="44"/></clipPath></defs>
    <g clip-path="url(#clip0)" transform="translate(-141 -572)"><g clip-path="url(#clip1)"><g clip-path="url(#clip2)"><g clip-path="url(#clip3)"><path d="M164 592.167C168.05 592.167 171.333 588.883 171.333 584.833 171.333 580.783 168.05 577.5 164 577.5 159.95 577.5 156.667 580.783 156.667 584.833 156.667 588.883 159.95 592.167 164 592.167Z" fill="#BFBFBF" fill-rule="nonzero" fill-opacity="1"/><path
            d="M175 610.5C176.013 610.5 176.833 609.679 176.833 608.667 176.833 601.579 171.088 595.833 164 595.833 156.912 595.833 151.167 601.579 151.167 608.667 151.167 609.679 151.987 610.5 153 610.5Z"
            fill="#BFBFBF" fill-rule="nonzero" fill-opacity="1"/></g></g></g></g></svg>
