<svg width="155" height="155" xmlns="http://www.w3.org/2000/svg" xmlns:xlink="http://www.w3.org/1999/xlink"
     xml:space="preserve" overflow="hidden"><defs><clipPath id="clip0"><rect x="0" y="0" width="155" height="155"/></clipPath></defs>
    <g clip-path="url(#clip0)"><path d="M89.5647 87.9027C86.148 87.9027 83.3779 90.6615 83.3779 94.0646 83.3779 97.467 86.148 100.226 89.5647 100.226L103.169 100.226C106.585 100.226 109.355 97.467 109.355 94.0646 109.355 90.6615 106.585 87.9027 103.169 87.9027ZM47.6181 87.9027C44.2014 87.9027 41.4312 90.6615 41.4312 94.0646 41.4312 97.467 44.2014 100.226 47.6181 100.226L61.2219 100.226C64.6387 100.226 67.4088 97.467 67.4088 94.0646 67.4088 90.6615 64.6387 87.9027 61.2219 87.9027ZM89.5647 61.3981C86.148 61.3981 83.3779 64.1569 83.3779 67.5593 83.3779 70.9624 86.148 73.7212 89.5647 73.7212L103.169 73.7212C106.585 73.7212 109.355 70.9624 109.355 67.5593 109.355 64.1569 106.585 61.3981 103.169 61.3981ZM47.6181 61.3981C44.2014 61.3981 41.4312 64.1569 41.4312 67.5593 41.4312 70.9624 44.2014 73.7212 47.6181 73.7212L61.2219 73.7212C64.6387 73.7212 67.4088 70.9624 67.4088 67.5593 67.4088 64.1569 64.6387 61.3981 61.2219 61.3981ZM51.6594 19.9999C55.418 19.9999 58.4651 23.0346 58.4651 26.7778L58.4651 32.788 92.4065 32.788 92.4065 26.7778C92.4065 23.0346 95.4536 19.9999 99.2122 19.9999 102.971 19.9999 106.018 23.0346 106.018 26.7778L106.018 32.788 110.076 32.788C119.975 32.788 128 40.7799 128 50.6384L128 109.149C128 119.008 119.975 127 110.076 127L40.9237 127C31.0247 127 23 119.008 23 109.149L23 50.6384C23 40.7799 31.0247 32.788 40.9237 32.788L44.8537 32.788 44.8537 26.7778C44.8537 23.0346 47.9009 19.9999 51.6594 19.9999Z" fill="#BFBFBF" fill-rule="evenodd" fill-opacity="1"/></g></svg>
