<svg width="155" height="155" xmlns="http://www.w3.org/2000/svg" xmlns:xlink="http://www.w3.org/1999/xlink"
     xml:space="preserve" overflow="hidden"><defs><clipPath id="clip0"><rect x="0" y="0" width="155" height="155"/></clipPath></defs>
    <g clip-path="url(#clip0)"><path d="M97.6418 67.2847C93.1048 67.2847 89.4265 70.9629 89.4265 75.4999 89.4265 80.037 93.1048 83.7152 97.6418 83.7152 102.179 83.7152 105.857 80.037 105.857 75.4999 105.857 70.9629 102.179 67.2847 97.6418 67.2847ZM75.4996 67.2847C70.9626 67.2847 67.2844 70.9629 67.2844 75.4999 67.2844 80.037 70.9626 83.7152 75.4996 83.7152 80.0366 83.7152 83.7148 80.037 83.7148 75.4999 83.7148 70.9629 80.0366 67.2847 75.4996 67.2847ZM52.3034 67.2847C47.7664 67.2847 44.0882 70.9629 44.0882 75.4999 44.0882 80.037 47.7664 83.7152 52.3034 83.7152 56.8404 83.7152 60.5187 80.037 60.5187 75.4999 60.5187 70.9629 56.8404 67.2847 52.3034 67.2847ZM75.4999 23C104.495 23 128 46.5049 128 75.4999 128 104.495 104.495 128 75.4999 128 46.5049 128 23 104.495 23 75.4999 23 46.5049 46.5049 23 75.4999 23Z" fill="#BFBFBF" fill-rule="evenodd" fill-opacity="1"/></g></svg>
